HIERARCHY
ROOT Hips
{
	OFFSET 0.00000 0.00000 0.00000
	CHANNELS 6 Xposition Yposition Zposition Yrotation Zrotation Xrotation 
	JOINT Lumbar
	{
		OFFSET 0 0 0
		CHANNELS 3 Zrotation Xrotation Yrotation
		JOINT Neck
		{
			OFFSET 0.00 0.2701 0.00
			CHANNELS 3 Zrotation Xrotation Yrotation
			End Site
			{
				OFFSET 0.00 0.1379 0.00
			}
		}
		JOINT RightShoulder
		{
			OFFSET 0.0119 0.2289 0.1181
			CHANNELS 3 Zrotation Xrotation Yrotation
			JOINT RightElbow
			{
				OFFSET 0.00 -0.1475 0.00
				CHANNELS 2 Zrotation Yrotation
				JOINT RightWrist
				{
					OFFSET 0.00 -0.1605 0.00
					CHANNELS 2 Zrotation Xrotation
					End Site
					{
						OFFSET 0.0040 -0.1068 0.0006
					}
				}
			}
		}
		JOINT LeftShoulder
		{
			OFFSET 0.0119 0.2289 -0.1181
			CHANNELS 3 Zrotation Xrotation Yrotation
			JOINT LeftElbow
			{
				OFFSET 0.00 -0.1475 0.00
				CHANNELS 2 Zrotation Yrotation
				JOINT LeftWrist
				{
					OFFSET 0.00 -0.1605 0.00
					CHANNELS 2 Zrotation Xrotation
					End Site
					{
						OFFSET 0.0040 -0.1068 -0.0006
					}
				}
			}
		}
	}
	JOINT RightHip
	{
		OFFSET 0.0316 -0.0424 0.0458
		CHANNELS 3 Zrotation Xrotation Yrotation
		JOINT RightKnee
		{
			OFFSET 0.00 -0.2438 0.00
			CHANNELS 1 Zrotation
			JOINT RightAnkle
			{
				OFFSET 0.00 -0.2449 0.00
				CHANNELS 3 Zrotation Xrotation Yrotation
				End Site
				{
					OFFSET 0.1237 -0.0542 0.0051
				}
			}
		}
	}
	JOINT LeftHip
	{
		OFFSET 0.0316 -0.0424 -0.0458
		CHANNELS 3 Zrotation Xrotation Yrotation
		JOINT LeftKnee
		{
			OFFSET 0.00 -0.2438 0.00
			CHANNELS 1 Zrotation
			JOINT LeftAnkle
			{
				OFFSET 0.00 -0.2449 0.00
				CHANNELS 3 Zrotation Xrotation Yrotation
				End Site
				{
					OFFSET 0.1237 -0.0542 -0.0051
				}
			}
		}
	}
}
MOTION
Frames: 14
Frame Time: 0.02
0.35597 0.34357 0.0163 178.89954 0 -5.11977 -7.39235 6.75699 -1.73925 -15.48207 8.16382 1.24551 42.50646 -38.80637 38.97505 87.03725 56.37428 -7.60382 6.06011 49.83323 18.25494 -36.13933 89.73818 -67.80285 -35.96854 2.25962 73.62208 -2.17311 -6.9897 -87.21527 9.12309 -2.58946 -0.57012 77.233 6.80427 -1.78564 -89.50527 12.25863 0.93886 -1.40991
0.35596 0.34355 0.01623 178.88818 0 -5.09787 -7.47195 6.71581 -1.80912 -15.694 8.20191 1.31187 42.746 -38.89844 39.04927 87.0569 56.40494 -7.58559 6.05217 49.59503 18.1272 -36.40583 88.69892 -68.35317 -35.98758 2.3265 73.63555 -2.16206 -6.972 -87.22857 9.12427 -2.59206 -0.57799 77.22826 6.81746 -1.76901 -89.50701 12.26223 0.93246 -1.41737
0.35595 0.34353 0.01615 178.87453 0 -5.07003 -7.54756 6.67543 -1.84378 -15.83886 8.21022 1.35201 42.91921 -38.96454 39.09833 87.04876 56.49287 -7.5672 6.03634 49.47965 18.13607 -36.74833 87.74088 -69.07468 -36.06287 2.41214 73.65067 -2.14248 -6.94162 -87.24241 9.12382 -2.59884 -0.59352 77.21921 6.83715 -1.74258 -89.50519 12.26595 0.92203 -1.4298
0.35593 0.34352 0.01608 178.86256 0 -5.04532 -7.62413 6.63584 -1.89591 -16.01038 8.22823 1.40374 43.12021 -39.03577 39.15726 87.0496 56.55636 -7.55046 6.02305 49.32054 18.08778 -37.05363 86.75154 -69.6983 -36.10398 2.48636 73.66466 -2.12739 -6.91728 -87.25588 9.12421 -2.60362 -0.60533 77.21215 6.85286 -1.7212 -89.50491 12.26952 0.91383 -1.43948
0.35592 0.3435 0.01599 178.84816 0 -5.01867 -7.70474 6.59141 -1.94231 -16.1954 8.26193 1.45749 43.32705 -39.13608 39.2215 87.06699 56.61464 -7.5272 6.01338 49.1088 18.02319 -37.37275 85.74356 -70.40794 -36.18229 2.57298 73.68022 -2.11004 -6.89188 -87.26995 9.12425 -2.60876 -0.61809 77.20489 6.87246 -1.69747 -89.50484 12.27341 0.90404 -1.4511
0.35591 0.34348 0.01593 178.83815 0 -4.99473 -7.77576 6.55722 -1.99194 -16.33701 8.25608 1.5003 43.50763 -39.16895 39.26973 87.04264 56.69752 -7.51685 5.99474 49.03766 18.0232 -37.67897 84.79275 -70.97858 -36.19692 2.63824 73.69289 -2.09522 -6.86567 -87.28284 9.12461 -2.61417 -0.6307 77.19704 6.88574 -1.67623 -89.50352 12.2767 0.89653 -1.45994
0.35588 0.34349 0.01592 178.84114 0 -4.97931 -7.82191 6.55121 -2.06111 -16.3798 8.14814 1.52249 43.63119 -39.02599 39.27344 86.91233 56.82523 -7.54933 5.95122 49.31096 18.16882 -37.94544 83.96744 -71.12353 -36.01212 2.63895 73.69736 -2.08976 -6.8398 -87.29287 9.1261 -2.61926 -0.64102 77.18858 6.87904 -1.66439 -89.49971 12.27814 0.89667 -1.45939
0.35586 0.34351 0.01592 178.84852 0 -4.96692 -7.85832 6.55546 -2.13432 -16.38095 8.00146 1.5339 43.7315 -38.81506 39.26316 86.74025 56.97693 -7.59365 5.89933 49.72455 18.37384 -38.19333 83.19805 -71.1223 -35.76266 2.61762 73.69882 -2.08703 -6.81363 -87.3016 9.12796 -2.62451 -0.65092 77.17968 6.86597 -1.65537 -89.49478 12.27901 0.89917 -1.45595
0.35583 0.34352 0.01592 178.85362 0 -4.95341 -7.89882 6.55492 -2.20436 -16.39833 7.87273 1.54812 43.8433 -38.63279 39.26372 86.5857 57.1235 -7.62779 5.85277 50.08245 18.55082 -38.44025 82.41072 -71.18806 -35.54929 2.60705 73.70152 -2.08278 -6.78789 -87.31058 9.12971 -2.62974 -0.66105 77.17099 6.85647 -1.64494 -89.49028 12.28026 0.90033 -1.45416
0.3558 0.34353 0.01592 178.85981 0 -4.93856 -7.9409 6.55487 -2.27886 -16.424 7.74171 1.57034 43.94812 -38.45981 39.24474 86.4369 57.24844 -7.68171 5.79977 50.4089 18.73769 -38.73008 81.59592 -71.25828 -35.31058 2.59418 73.70481 -2.07936 -6.76041 -87.32104 9.13117 -2.63489 -0.67133 77.16209 6.84435 -1.63465 -89.48591 12.281 0.90248 -1.45116
0.35578 0.34355 0.01592 178.86482 0 -4.92736 -7.97707 6.55629 -2.34541 -16.42426 7.60638 1.57355 44.06371 -38.25068 39.26313 86.26585 57.42251 -7.69783 5.75792 50.83469 18.91548 -38.92449 80.84912 -71.28124 -35.10737 2.58042 73.70612 -2.07503 -6.73674 -87.3281 9.13334 -2.64017 -0.68103 77.1536 6.83605 -1.62495 -89.48114 12.28268 0.90321 -1.44987
0.35576 0.34357 0.01593 178.8655 0 -4.92517 -8.00228 6.55875 -2.39001 -16.35749 7.47113 1.52814 44.20756 -37.96683 39.39122 86.04962 57.73364 -7.60178 5.75213 51.48146 19.05934 -38.86479 80.28781 -71.21722 -35.02748 2.57116 73.703 -2.06708 -6.72279 -87.32594 9.13747 -2.64609 -0.68969 77.14615 6.84023 -1.61543 -89.47494 12.28712 0.89918 -1.45449
0.35575 0.34359 0.01594 178.86483 0 -4.92665 -8.02135 6.56241 -2.42645 -16.26819 7.33258 1.46384 44.36464 -37.64742 39.55686 85.81141 58.09188 -7.46819 5.7573 52.22601 19.19012 -38.70838 79.79034 -71.10837 -34.98332 2.56138 73.69795 -2.05821 -6.71288 -87.32042 9.14228 -2.65208 -0.69764 77.1392 6.84838 -1.60658 -89.46852 12.29254 0.89372 -1.46081
0.35574 0.34361 0.01595 178.86482 0 -4.92672 -8.0413 6.56586 -2.46614 -16.1943 7.19403 1.40751 44.52085 -37.33894 39.70357 85.57949 58.42331 -7.35503 5.75532 52.93795 19.3226 -38.59272 79.2559 -71.01404 -34.91653 2.55072 73.69356 -2.05009 -6.70177 -87.31652 9.14677 -2.6578 -0.70554 77.13216 6.85443 -1.59797 -89.46265 12.29752 0.88912 -1.46601
